<svg width="512" height="512" viewBox="0 0 512 512" fill="none" xmlns="http://www.w3.org/2000/svg">
<rect width="512" height="512" fill="#191725"/>
<path d="M183.969 374.692V153.957H209.288L209.938 192.91L206.042 190.962C210.37 177.545 217.512 167.374 227.467 160.449C237.638 153.524 249.324 150.061 262.524 150.061C279.621 150.061 293.579 154.281 304.399 162.721C315.436 171.161 323.551 182.198 328.745 195.831C333.939 209.465 336.536 224.181 336.536 239.978C336.536 255.776 333.939 270.492 328.745 284.125C323.551 297.759 315.436 308.796 304.399 317.236C293.579 325.675 279.621 329.895 262.524 329.895C253.652 329.895 245.32 328.38 237.529 325.351C229.955 322.321 223.463 318.101 218.053 312.691C212.859 307.281 209.288 300.897 207.341 293.539L211.236 288.994V374.692H183.969ZM259.928 303.927C274.86 303.927 286.546 298.3 294.985 287.047C303.642 275.794 307.97 260.104 307.97 239.978C307.97 219.852 303.642 204.163 294.985 192.91C286.546 181.657 274.86 176.03 259.928 176.03C249.973 176.03 241.317 178.411 233.959 183.172C226.817 187.932 221.191 195.074 217.079 204.596C213.184 214.118 211.236 225.912 211.236 239.978C211.236 254.045 213.184 265.839 217.079 275.361C220.974 284.883 226.601 292.024 233.959 296.785C241.317 301.546 249.973 303.927 259.928 303.927Z" fill="#B998D8"/>
</svg>
